# xmcd
# 
# Track frame offsets:
#     150
#     18032
#     31185
#     42105
#     57215
#     72782
#     86377
#     104065
#     143125
#     175972
# 
# Disc length: 2619
# 
# Revision: 7
# Processed by: cddbd v1.5.2PL0 Copyright (c) Steve Scherf et al.
# Submitted via: fre:ac v1.0.31
# 
DISCID=790a390a
DTITLE=David Bowie - Stage Disc 2
DYEAR=1978
DGENRE=Rock
TTITLE0=Five Years
TTITLE1=Soul Love
TTITLE2=Star
TTITLE3=Hang on to Yourself
TTITLE4=Ziggy Stardust
TTITLE5=Art Decade
TTITLE6=Alabama Song
TTITLE7=Station to Station
TTITLE8=Stay
TTITLE9=TVC15
EXTD=remastered 2005 YEAR: 1978
EXTT0=
EXTT1=
EXTT2=
EXTT3=
EXTT4=
EXTT5=
EXTT6=
EXTT7=
EXTT8=
EXTT9=
PLAYORDER=
